# xmcd
#
# Track frame offsets:
# 150
# 14219
# 34320
# 51449
# 67949
# 85930
# 98305
# 113649
# 134335
# 145288
# 158713
# 172289
# 186388
# 199515
# 210538
# 219538
#
# Disc length: 3120 seconds
#
#
# Revision: 2
# Processed by: cddbd v1.5.2PL0 Copyright (c) Steve Scherf et al.
# Submitted via: FreeRIP 2.96 
#
DISCID=eb0c2e10
DTITLE=Hayseed Dixie [USA] - A Hot Piece of Grass
DYEAR=2005
DGENRE=Bluegrass
TTITLE0=Black Dog [Led Zeppelin cover, 1971] [from 'A Hot Piece of Grass', Jun 2005] [MLVox]
TTITLE1=War Pigs [Black Sabbath cover, 1970] [from 'A Hot Piece of Grass', Jun 2005] [MLVox]
TTITLE2=Holiday [Green Day cover, 2004] [from 'A Hot Piece of Grass', Jun 2005] [MLVox]
TTITLE3=Rockin' in the Free World [Neil Young cover, 1989] [from 'A Hot Piece of Grass', Jun 2005] [MLVox]
TTITLE4=Whole Lotta Love [Led Zeppelin cover, 1969] [from 'A Hot Piece of Grass', Jun 2005] [MLVox]
TTITLE5=Runnin' with the Devil [Van Halen cover, 1978] [from 'A Hot Piece of Grass', Jun 2005] [MLVox]
TTITLE6=This Fire [Franz Ferdinand cover, 2004] [from 'A Hot Piece of Grass', Jun 2005] [MLVox]
TTITLE7=Roses [OutKast cover, 2003] [from 'A Hot Piece of Grass', Jun 2005] [MLVox]
TTITLE8=Blind Beggar Breakdown [from 'A Hot Piece of Grass', Jun 2005] [MLVox]
TTITLE9=Kirby Hill [from 'A Hot Piece of Grass', Jun 2005] [MLVox]
TTITLE10=Uncle Virgil [from 'A Hot Piece of Grass', Jun 2005] [MLVox]
TTITLE11=Mountain Man [from 'A Hot Piece of Grass', Jun 2005] [MLVox]
TTITLE12=Marijuana [The Reverend Horton Heat cover, 1990] [from 'A Hot Piece of Grass', Jun 2005] [MLVox]
TTITLE13=Moonshiner's Daughter [from 'A Hot Piece of Grass', Jun 2005] [MLVox]
TTITLE14=Wish I Was You [from 'A Hot Piece of Grass', Jun 2005] [MLVox]
TTITLE15=Duelling Banjos [Auther "Guitar Boogie" Smith and Don Reno cover, 1955] [from 'A Hot Piece of Grass', Jun 2005] [MLVox]
EXTD=
EXTT0=
EXTT1=
EXTT2=
EXTT3=
EXTT4=
EXTT5=
EXTT6=
EXTT7=
EXTT8=
EXTT9=
EXTT10=
EXTT11=
EXTT12=
EXTT13=
EXTT14=
EXTT15=
PLAYORDER=
